<svg width="25" height="25" viewBox="0 0 25 25" fill="none" xmlns="http://www.w3.org/2000/svg">
<g clip-path="url(#clip0_20_32127)">
<path d="M14.8926 12.5C14.8926 13.8214 13.8214 14.8926 12.5 14.8926C11.1786 14.8926 10.1074 13.8214 10.1074 12.5C10.1074 11.1786 11.1786 10.1074 12.5 10.1074C13.8214 10.1074 14.8926 11.1786 14.8926 12.5Z" fill="white"/>
<path d="M18.0954 8.26643C17.9804 7.95477 17.7969 7.67267 17.5584 7.44112C17.3269 7.2027 17.045 7.01921 16.7331 6.9042C16.4802 6.80597 16.1003 6.68905 15.4005 6.6572C14.6434 6.62267 14.4165 6.61523 12.5 6.61523C10.5833 6.61523 10.3563 6.62248 9.59946 6.65701C8.89966 6.68905 8.51952 6.80597 8.2668 6.9042C7.95495 7.01921 7.67285 7.2027 7.44149 7.44112C7.20307 7.67267 7.01958 7.95457 6.90438 8.26643C6.80615 8.51934 6.68923 8.89948 6.65738 9.59928C6.62286 10.3561 6.61542 10.5831 6.61542 12.4998C6.61542 14.4163 6.62286 14.6433 6.65738 15.4003C6.68923 16.1001 6.80615 16.48 6.90438 16.733C7.01958 17.0448 7.20288 17.3267 7.4413 17.5583C7.67285 17.7967 7.95476 17.9802 8.26661 18.0952C8.51952 18.1936 8.89966 18.3105 9.59946 18.3424C10.3563 18.3769 10.5831 18.3841 12.4998 18.3841C14.4167 18.3841 14.6436 18.3769 15.4003 18.3424C16.1001 18.3105 16.4802 18.1936 16.7331 18.0952C17.3591 17.8537 17.8539 17.3589 18.0954 16.733C18.1936 16.48 18.3105 16.1001 18.3426 15.4003C18.3771 14.6433 18.3843 14.4163 18.3843 12.4998C18.3843 10.5831 18.3771 10.3561 18.3426 9.59928C18.3107 8.89948 18.1938 8.51934 18.0954 8.26643ZM12.5 16.1854C10.4643 16.1854 8.81402 14.5353 8.81402 12.4996C8.81402 10.4639 10.4643 8.81384 12.5 8.81384C14.5355 8.81384 16.1857 10.4639 16.1857 12.4996C16.1857 14.5353 14.5355 16.1854 12.5 16.1854ZM16.3315 9.52947C15.8558 9.52947 15.4701 9.14381 15.4701 8.66811C15.4701 8.19242 15.8558 7.80676 16.3315 7.80676C16.8071 7.80676 17.1928 8.19242 17.1928 8.66811C17.1926 9.14381 16.8071 9.52947 16.3315 9.52947Z" fill="white"/>
<path d="M12.5 0C5.5975 0 0 5.5975 0 12.5C0 19.4025 5.5975 25 12.5 25C19.4025 25 25 19.4025 25 12.5C25 5.5975 19.4025 0 12.5 0ZM19.6344 15.4593C19.5997 16.2233 19.4782 16.745 19.3008 17.2016C18.928 18.1658 18.1658 18.928 17.2016 19.3008C16.7452 19.4782 16.2233 19.5995 15.4594 19.6344C14.694 19.6693 14.4495 19.6777 12.5002 19.6777C10.5507 19.6777 10.3064 19.6693 9.54075 19.6344C8.77686 19.5995 8.255 19.4782 7.79858 19.3008C7.31945 19.1206 6.88572 18.8381 6.52714 18.4729C6.16207 18.1145 5.87959 17.6805 5.69935 17.2016C5.52197 16.7452 5.40047 16.2233 5.36575 15.4594C5.33047 14.6938 5.32227 14.4493 5.32227 12.5C5.32227 10.5507 5.33047 10.3062 5.36556 9.54075C5.40028 8.77666 5.52158 8.255 5.69897 7.79839C5.87921 7.31945 6.16188 6.88553 6.52714 6.52714C6.88553 6.16188 7.31945 5.8794 7.79839 5.69916C8.255 5.52177 8.77666 5.40047 9.54075 5.36556C10.3062 5.33066 10.5507 5.32227 12.5 5.32227C14.4493 5.32227 14.6938 5.33066 15.4593 5.36575C16.2233 5.40047 16.745 5.52177 17.2016 5.69897C17.6805 5.87921 18.1145 6.16188 18.4731 6.52714C18.8381 6.88572 19.1208 7.31945 19.3008 7.79839C19.4784 8.255 19.5997 8.77666 19.6346 9.54075C19.6695 10.3062 19.6777 10.5507 19.6777 12.5C19.6777 14.4493 19.6695 14.6938 19.6344 15.4593Z" fill="white"/>
</g>
<defs>
<clipPath id="clip0_20_32127">
<rect width="25" height="25" fill="white"/>
</clipPath>
</defs>
</svg>
